<?xml version="1.0" encoding="iso-8859-1"?>
<!-- Generator: Adobe Illustrator 19.0.0, SVG Export Plug-In . SVG Version: 6.00 Build 0)  -->
<svg version="1.1" id="Layer_1" xmlns="http://www.w3.org/2000/svg" xmlns:xlink="http://www.w3.org/1999/xlink" x="0px" y="0px"
	 viewBox="0 0 512 512" style="enable-background:new 0 0 512 512;" xml:space="preserve">
<path style="fill:#EFEFEF;" d="M512,442.725c0,4.626-1.766,9.257-5.292,12.774c-3.533,3.533-8.159,5.299-12.777,5.299H18.071
	c-4.623,0-9.249-1.766-12.777-5.299C1.764,451.985,0,447.351,0,442.725V143.361h512V442.725z"/>
<path style="fill:#D9D8D7;" d="M512,143.361H0V69.267c0-4.626,1.764-9.244,5.294-12.774c3.528-3.53,8.154-5.292,12.777-5.292
	h475.858c4.621,0,9.244,1.761,12.777,5.292c3.525,3.53,5.292,8.151,5.292,12.774v74.094H512z"/>
<rect x="191.258" y="182.171" style="fill:#84D7E8;" width="129.5" height="108.442"/>
<g>
	<rect x="156.621" y="182.171" style="fill:#3F4A5A;" width="12.047" height="12.047"/>
	<path style="fill:#3F4A5A;" d="M144.901,194.223h-11.712v-12.047h11.712V194.223z M121.477,194.223h-11.715v-12.047h11.715V194.223
		z M98.051,194.223H86.339v-12.047h11.712V194.223z M74.627,194.223H62.912v-12.047h11.715V194.223z"/>
	<rect x="39.153" y="182.171" style="fill:#3F4A5A;" width="12.047" height="12.047"/>
	<path style="fill:#3F4A5A;" d="M51.2,266.525H39.153v-12.05H51.2V266.525z M51.2,242.423H39.153v-12.05H51.2V242.423z
		 M51.2,218.323H39.153v-12.05H51.2V218.323z"/>
	<rect x="39.153" y="278.58" style="fill:#3F4A5A;" width="12.047" height="12.05"/>
	<path style="fill:#3F4A5A;" d="M144.901,290.625h-11.717v-12.05h11.717V290.625z M121.472,290.625h-11.709v-12.05h11.709V290.625z
		 M98.051,290.625H86.336v-12.05h11.715V290.625z M74.621,290.625H62.912v-12.05h11.709V290.625z"/>
	<rect x="156.621" y="278.58" style="fill:#3F4A5A;" width="12.047" height="12.05"/>
	<path style="fill:#3F4A5A;" d="M168.658,266.525h-12.047v-12.052h12.047V266.525z M168.658,242.423h-12.047v-12.05h12.047V242.423z
		 M168.658,218.318h-12.047v-12.05h12.047V218.318z"/>
	<rect x="460.8" y="182.171" style="fill:#3F4A5A;" width="12.05" height="12.047"/>
	<path style="fill:#3F4A5A;" d="M449.088,194.223h-11.712v-12.047h11.712V194.223z M425.667,194.223h-11.717v-12.047h11.717V194.223
		z M402.237,194.223h-11.712v-12.047h11.712V194.223z M378.819,194.223h-11.717v-12.047h11.717V194.223z"/>
	<rect x="343.347" y="182.171" style="fill:#3F4A5A;" width="12.045" height="12.047"/>
	<path style="fill:#3F4A5A;" d="M355.387,266.525h-12.045v-12.05h12.045V266.525z M355.387,242.423h-12.045v-12.05h12.045V242.423z
		 M355.387,218.323h-12.045v-12.05h12.045V218.323z"/>
	<rect x="343.347" y="278.58" style="fill:#3F4A5A;" width="12.045" height="12.05"/>
	<path style="fill:#3F4A5A;" d="M449.088,290.625h-11.712v-12.05h11.712V290.625z M425.661,290.625h-11.712v-12.05h11.712V290.625z
		 M402.237,290.625h-11.712v-12.05h11.712V290.625z M378.813,290.625h-11.712v-12.05h11.712V290.625z"/>
	<rect x="460.8" y="278.58" style="fill:#3F4A5A;" width="12.05" height="12.05"/>
	<path style="fill:#3F4A5A;" d="M472.85,266.525H460.8v-12.052h12.05V266.525z M472.85,242.423H460.8v-12.05h12.05V242.423z
		 M472.85,218.318H460.8v-12.05h12.05V218.318z"/>
	<rect x="156.621" y="313.217" style="fill:#3F4A5A;" width="12.047" height="12.05"/>
	<path style="fill:#3F4A5A;" d="M144.901,325.259h-11.712v-12.05h11.712V325.259z M121.477,325.259h-11.715v-12.05h11.715V325.259z
		 M98.051,325.259H86.339v-12.05h11.712V325.259z M74.627,325.259H62.912v-12.05h11.715V325.259z"/>
	<rect x="39.153" y="313.217" style="fill:#3F4A5A;" width="12.047" height="12.05"/>
	<path style="fill:#3F4A5A;" d="M51.2,397.544H39.153v-12.042H51.2V397.544z M51.2,373.452H39.153v-12.05H51.2V373.452z
		 M51.2,349.352H39.153v-12.05H51.2V349.352z"/>
	<rect x="39.153" y="409.601" style="fill:#3F4A5A;" width="12.047" height="12.042"/>
	<path style="fill:#3F4A5A;" d="M144.901,421.643h-11.717v-12.042h11.717V421.643z M121.472,421.643h-11.709v-12.042h11.709V421.643
		z M98.051,421.643H86.336v-12.042h11.715V421.643z M74.621,421.643H62.912v-12.042h11.709V421.643z"/>
	<rect x="156.621" y="409.601" style="fill:#3F4A5A;" width="12.047" height="12.042"/>
	<path style="fill:#3F4A5A;" d="M168.658,397.551h-12.047v-12.05h12.047V397.551z M168.658,373.452h-12.047v-12.05h12.047V373.452z
		 M168.658,349.359h-12.047v-12.05h12.047V349.359z"/>
	<rect x="460.8" y="313.217" style="fill:#3F4A5A;" width="12.05" height="12.05"/>
	<path style="fill:#3F4A5A;" d="M449.088,325.259h-11.712v-12.05h11.712V325.259z M425.667,325.259h-11.717v-12.05h11.717V325.259z
		 M402.237,325.259h-11.712v-12.05h11.712V325.259z M378.819,325.259h-11.717v-12.05h11.717V325.259z"/>
	<rect x="343.347" y="313.217" style="fill:#3F4A5A;" width="12.045" height="12.05"/>
	<path style="fill:#3F4A5A;" d="M355.387,397.544h-12.045v-12.042h12.045V397.544z M355.387,373.452h-12.045v-12.05h12.045V373.452z
		 M355.387,349.352h-12.045v-12.05h12.045V349.352z"/>
	<rect x="343.347" y="409.601" style="fill:#3F4A5A;" width="12.045" height="12.042"/>
	<path style="fill:#3F4A5A;" d="M449.088,421.643h-11.712v-12.042h11.712V421.643z M425.661,421.643h-11.712v-12.042h11.712V421.643
		z M402.237,421.643h-11.712v-12.042h11.712V421.643z M378.813,421.643h-11.712v-12.042h11.712V421.643z"/>
	<rect x="460.8" y="409.601" style="fill:#3F4A5A;" width="12.05" height="12.042"/>
	<path style="fill:#3F4A5A;" d="M472.85,397.551H460.8v-12.05h12.05V397.551z M472.85,373.452H460.8v-12.05h12.05V373.452z
		 M472.85,349.359H460.8v-12.05h12.05V349.359z"/>
	<rect x="308.71" y="313.217" style="fill:#3F4A5A;" width="12.042" height="12.05"/>
	<path style="fill:#3F4A5A;" d="M296.993,325.259h-11.709v-12.05h11.709V325.259z M273.569,325.259h-11.712v-12.05h11.712V325.259z
		 M250.14,325.259h-11.707v-12.05h11.707V325.259z M226.721,325.259h-11.712v-12.05h11.712V325.259z"/>
	<rect x="191.258" y="313.217" style="fill:#3F4A5A;" width="12.042" height="12.05"/>
	<path style="fill:#3F4A5A;" d="M203.292,397.544H191.25v-12.042h12.042V397.544z M203.292,373.452H191.25v-12.05h12.042V373.452z
		 M203.292,349.352H191.25v-12.05h12.042V349.352z"/>
	<rect x="191.258" y="409.601" style="fill:#3F4A5A;" width="12.042" height="12.042"/>
	<path style="fill:#3F4A5A;" d="M296.993,421.643h-11.712v-12.042h11.712V421.643z M273.567,421.643h-11.709v-12.042h11.709V421.643
		z M250.14,421.643h-11.712v-12.042h11.712V421.643z M226.716,421.643h-11.707v-12.042h11.707V421.643z"/>
	<rect x="308.71" y="409.601" style="fill:#3F4A5A;" width="12.042" height="12.042"/>
	<path style="fill:#3F4A5A;" d="M320.75,397.551h-12.042v-12.05h12.042V397.551z M320.75,373.452h-12.042v-12.05h12.042V373.452z
		 M320.75,349.359h-12.042v-12.05h12.042V349.359z"/>
</g>
<path style="fill:#D65A38;" d="M60.234,97.284c0,8.307-6.74,15.058-15.058,15.058c-8.32,0-15.06-6.751-15.06-15.058
	c0-8.32,6.743-15.063,15.06-15.063C53.494,82.223,60.234,88.964,60.234,97.284z"/>
<path style="fill:#F5B947;" d="M105.413,97.284c0,8.307-6.74,15.058-15.06,15.058c-8.317,0-15.058-6.751-15.058-15.058
	c0-8.32,6.74-15.063,15.058-15.063C98.67,82.223,105.413,88.964,105.413,97.284z"/>
<path style="fill:#71BF8C;" d="M150.587,97.284c0,8.307-6.738,15.058-15.058,15.058c-8.317,0-15.058-6.751-15.058-15.058
	c0-8.32,6.74-15.063,15.058-15.063C143.849,82.223,150.587,88.964,150.587,97.284z"/>
<g>
</g>
<g>
</g>
<g>
</g>
<g>
</g>
<g>
</g>
<g>
</g>
<g>
</g>
<g>
</g>
<g>
</g>
<g>
</g>
<g>
</g>
<g>
</g>
<g>
</g>
<g>
</g>
<g>
</g>
</svg>
