<svg xmlns="http://www.w3.org/2000/svg" width="1920" height="1080"><path d="M383,1307L-35,1287L547,1338Z" fill="#7486b3" stroke="#7486b3" stroke-width="1.51"/><path d="M-35,1287L-173,1297L547,1338Z" fill="#7b8bb6" stroke="#7b8bb6" stroke-width="1.51"/><path d="M285,-213L631,-208L923,-254Z" fill="#cbe1f0" stroke="#cbe1f0" stroke-width="1.51"/><path d="M-56,-249L285,-213L923,-254Z" fill="#dae8f6" stroke="#dae8f6" stroke-width="1.51"/><path d="M730,1330L547,1338L927,1331Z" fill="#5578a7" stroke="#5578a7" stroke-width="1.51"/><path d="M927,1331L547,1338L1238,1337Z" fill="#4571a4" stroke="#4571a4" stroke-width="1.51"/><path d="M1592,1299L1238,1337L1944,1327Z" fill="#155293" stroke="#155293" stroke-width="1.51"/><path d="M1330,-237L1680,-231L2048,-234Z" fill="#93a9d4" stroke="#93a9d4" stroke-width="1.51"/><path d="M923,-254L1330,-237L2048,-234Z" fill="#9cb9dd" stroke="#9cb9dd" stroke-width="1.51"/><path d="M1791,-205L1933,-192L2048,-234Z" fill="#8b9ac6" stroke="#8b9ac6" stroke-width="1.51"/><path d="M1680,-231L1791,-205L2048,-234Z" fill="#8fa0cd" stroke="#8fa0cd" stroke-width="1.51"/><path d="M2048,-234L2055,-65L2104,53Z" fill="#7e8db7" stroke="#7e8db7" stroke-width="1.51"/><path d="M2051,221L2103,391L2104,53Z" fill="#6881af" stroke="#6881af" stroke-width="1.51"/><path d="M2092,1093L1954,1185L2114,1320Z" fill="#094287" stroke="#094287" stroke-width="1.51"/><path d="M2092,1093L2114,1320L2117,956Z" fill="#0b4689" stroke="#0b4689" stroke-width="1.51"/><path d="M1973,890L2117,956L2130,857Z" fill="#1c5898" stroke="#1c5898" stroke-width="1.51"/><path d="M1969,653L1973,890L2130,857Z" fill="#2663a1" stroke="#2663a1" stroke-width="1.51"/><path d="M2117,956L2114,1320L2130,857Z" fill="#114b8d" stroke="#114b8d" stroke-width="1.51"/><path d="M1969,653L2130,857L2136,688Z" fill="#2b659f" stroke="#2b659f" stroke-width="1.51"/><path d="M2067,500L1969,653L2136,688Z" fill="#396da5" stroke="#396da5" stroke-width="1.51"/><path d="M2103,391L2067,500L2136,688Z" fill="#4270a4" stroke="#4270a4" stroke-width="1.51"/><path d="M2104,53L2103,391L2136,688Z" fill="#5678a7" stroke="#5678a7" stroke-width="1.51"/><path d="M1954,1185L1944,1327L2114,1320Z" fill="#093f81" stroke="#093f81" stroke-width="1.51"/><path d="M1919,1026L2092,1093L2117,956Z" fill="#125195" stroke="#125195" stroke-width="1.51"/><path d="M2051,221L1914,359L2103,391Z" fill="#5f81b1" stroke="#5f81b1" stroke-width="1.51"/><path d="M1937,55L2051,221L2104,53Z" fill="#7488b7" stroke="#7488b7" stroke-width="1.51"/><path d="M1973,890L1919,1026L2117,956Z" fill="#17589c" stroke="#17589c" stroke-width="1.51"/><path d="M2048,-234L1963,-81L2055,-65Z" fill="#8292bc" stroke="#8292bc" stroke-width="1.51"/><path d="M1914,359L2067,500L2103,391Z" fill="#537bae" stroke="#537bae" stroke-width="1.51"/><path d="M2055,-65L1937,55L2104,53Z" fill="#798cb9" stroke="#798cb9" stroke-width="1.51"/><path d="M1933,-192L1963,-81L2048,-234Z" fill="#8695c1" stroke="#8695c1" stroke-width="1.51"/><path d="M1919,1026L1954,1185L2092,1093Z" fill="#0d4e95" stroke="#0d4e95" stroke-width="1.51"/><path d="M1888,251L1914,359L2051,221Z" fill="#6688b9" stroke="#6688b9" stroke-width="1.51"/><path d="M1963,-81L1937,55L2055,-65Z" fill="#7d90bd" stroke="#7d90bd" stroke-width="1.51"/><path d="M1881,504L1969,653L2067,500Z" fill="#4276af" stroke="#4276af" stroke-width="1.51"/><path d="M1914,359L1881,504L2067,500Z" fill="#507db3" stroke="#507db3" stroke-width="1.51"/><path d="M1937,55L1888,251L2051,221Z" fill="#708bbb" stroke="#708bbb" stroke-width="1.51"/><path d="M1969,653L1804,799L1973,890Z" fill="#286bab" stroke="#286bab" stroke-width="1.51"/><path d="M1813,121L1888,251L1937,55Z" fill="#7691c3" stroke="#7691c3" stroke-width="1.51"/><path d="M1745,1251L1592,1299L1944,1327Z" fill="#0e4b90" stroke="#0e4b90" stroke-width="1.51"/><path d="M1919,1026L1752,1153L1954,1185Z" fill="#0b539d" stroke="#0b539d" stroke-width="1.51"/><path d="M1745,1251L1944,1327L1954,1185Z" fill="#09488e" stroke="#09488e" stroke-width="1.51"/><path d="M1773,-104L1937,55L1963,-81Z" fill="#8196c6" stroke="#8196c6" stroke-width="1.51"/><path d="M1881,504L1808,717L1969,653Z" fill="#3b77b3" stroke="#3b77b3" stroke-width="1.51"/><path d="M1808,717L1804,799L1969,653Z" fill="#2f72b2" stroke="#2f72b2" stroke-width="1.51"/><path d="M1802,989L1919,1026L1973,890Z" fill="#165da4" stroke="#165da4" stroke-width="1.51"/><path d="M1804,799L1802,989L1973,890Z" fill="#1e65ab" stroke="#1e65ab" stroke-width="1.51"/><path d="M1933,-192L1773,-104L1963,-81Z" fill="#879ac8" stroke="#879ac8" stroke-width="1.51"/><path d="M1752,1153L1745,1251L1954,1185Z" fill="#0b5099" stroke="#0b5099" stroke-width="1.51"/><path d="M1813,121L1827,240L1888,251Z" fill="#7091c3" stroke="#7091c3" stroke-width="1.51"/><path d="M1791,-205L1773,-104L1933,-192Z" fill="#8b9fcc" stroke="#8b9fcc" stroke-width="1.51"/><path d="M1773,-104L1813,121L1937,55Z" fill="#7f97c8" stroke="#7f97c8" stroke-width="1.51"/><path d="M1778,440L1881,504L1914,359Z" fill="#5584bc" stroke="#5584bc" stroke-width="1.51"/><path d="M1802,989L1752,1153L1919,1026Z" fill="#125ba3" stroke="#125ba3" stroke-width="1.51"/><path d="M1730,505L1808,717L1881,504Z" fill="#427fb9" stroke="#427fb9" stroke-width="1.51"/><path d="M1888,251L1827,240L1914,359Z" fill="#678cbe" stroke="#678cbe" stroke-width="1.51"/><path d="M1773,-104L1686,-6L1813,121Z" fill="#829dcc" stroke="#829dcc" stroke-width="1.51"/><path d="M1827,240L1778,440L1914,359Z" fill="#618bbf" stroke="#618bbf" stroke-width="1.51"/><path d="M1778,440L1730,505L1881,504Z" fill="#4f85bd" stroke="#4f85bd" stroke-width="1.51"/><path d="M1441,1275L1238,1337L1592,1299Z" fill="#205c9a" stroke="#205c9a" stroke-width="1.51"/><path d="M1627,958L1802,989L1804,799Z" fill="#1f6aaf" stroke="#1f6aaf" stroke-width="1.51"/><path d="M1643,799L1627,958L1804,799Z" fill="#2772b3" stroke="#2772b3" stroke-width="1.51"/><path d="M1730,505L1634,678L1808,717Z" fill="#3e7fbb" stroke="#3e7fbb" stroke-width="1.51"/><path d="M1602,381L1778,440L1827,240Z" fill="#6291c3" stroke="#6291c3" stroke-width="1.51"/><path d="M1584,208L1602,381L1827,240Z" fill="#6d98c9" stroke="#6d98c9" stroke-width="1.51"/><path d="M1813,121L1584,208L1827,240Z" fill="#7497c8" stroke="#7497c8" stroke-width="1.51"/><path d="M1600,1084L1752,1153L1802,989Z" fill="#165fa7" stroke="#165fa7" stroke-width="1.51"/><path d="M1627,958L1600,1084L1802,989Z" fill="#1b66ac" stroke="#1b66ac" stroke-width="1.51"/><path d="M1643,799L1804,799L1808,717Z" fill="#2d75b4" stroke="#2d75b4" stroke-width="1.51"/><path d="M1686,-6L1599,60L1813,121Z" fill="#809ecd" stroke="#809ecd" stroke-width="1.51"/><path d="M1599,60L1584,208L1813,121Z" fill="#7d9ecd" stroke="#7d9ecd" stroke-width="1.51"/><path d="M1634,678L1643,799L1808,717Z" fill="#327bb8" stroke="#327bb8" stroke-width="1.51"/><path d="M1330,-237L1448,-182L1680,-231Z" fill="#98b5db" stroke="#98b5db" stroke-width="1.51"/><path d="M1680,-231L1773,-104L1791,-205Z" fill="#8ea4d0" stroke="#8ea4d0" stroke-width="1.51"/><path d="M1602,381L1730,505L1778,440Z" fill="#578dc2" stroke="#578dc2" stroke-width="1.51"/><path d="M923,-254L1044,-220L1330,-237Z" fill="#aacbe6" stroke="#aacbe6" stroke-width="1.51"/><path d="M1593,531L1634,678L1730,505Z" fill="#4688c0" stroke="#4688c0" stroke-width="1.51"/><path d="M1680,-231L1686,-6L1773,-104Z" fill="#8ba4d0" stroke="#8ba4d0" stroke-width="1.51"/><path d="M1592,1299L1745,1251L1752,1153Z" fill="#11539a" stroke="#11539a" stroke-width="1.51"/><path d="M1600,1084L1592,1299L1752,1153Z" fill="#135aa2" stroke="#135aa2" stroke-width="1.51"/><path d="M1680,-231L1518,-43L1686,-6Z" fill="#8ca8d4" stroke="#8ca8d4" stroke-width="1.51"/><path d="M1602,381L1593,531L1730,505Z" fill="#548ec4" stroke="#548ec4" stroke-width="1.51"/><path d="M1481,1194L1592,1299L1600,1084Z" fill="#175ea4" stroke="#175ea4" stroke-width="1.51"/><path d="M1448,-182L1518,-43L1680,-231Z" fill="#92afd8" stroke="#92afd8" stroke-width="1.51"/><path d="M1518,-43L1599,60L1686,-6Z" fill="#86a7d3" stroke="#86a7d3" stroke-width="1.51"/><path d="M1584,208L1509,249L1602,381Z" fill="#6f9dcd" stroke="#6f9dcd" stroke-width="1.51"/><path d="M1593,531L1478,639L1634,678Z" fill="#438ac2" stroke="#438ac2" stroke-width="1.51"/><path d="M1460,848L1627,958L1643,799Z" fill="#2976b8" stroke="#2976b8" stroke-width="1.51"/><path d="M1634,678L1478,639L1643,799Z" fill="#3882be" stroke="#3882be" stroke-width="1.51"/><path d="M1478,639L1460,848L1643,799Z" fill="#3482be" stroke="#3482be" stroke-width="1.51"/><path d="M1431,942L1600,1084L1627,958Z" fill="#206eb2" stroke="#206eb2" stroke-width="1.51"/><path d="M1473,369L1469,537L1593,531Z" fill="#5795c9" stroke="#5795c9" stroke-width="1.51"/><path d="M1512,50L1584,208L1599,60Z" fill="#81a5d3" stroke="#81a5d3" stroke-width="1.51"/><path d="M1473,369L1593,531L1602,381Z" fill="#5d96c9" stroke="#5d96c9" stroke-width="1.51"/><path d="M1460,848L1431,942L1627,958Z" fill="#2877b8" stroke="#2877b8" stroke-width="1.51"/><path d="M1512,50L1509,249L1584,208Z" fill="#7ca4d1" stroke="#7ca4d1" stroke-width="1.51"/><path d="M1469,537L1478,639L1593,531Z" fill="#4a90c6" stroke="#4a90c6" stroke-width="1.51"/><path d="M1518,-43L1512,50L1599,60Z" fill="#86a9d5" stroke="#86a9d5" stroke-width="1.51"/><path d="M1509,249L1473,369L1602,381Z" fill="#6b9ecc" stroke="#6b9ecc" stroke-width="1.51"/><path d="M1481,1194L1441,1275L1592,1299Z" fill="#1b5b9e" stroke="#1b5b9e" stroke-width="1.51"/><path d="M1431,942L1481,1194L1600,1084Z" fill="#206aaf" stroke="#206aaf" stroke-width="1.51"/><path d="M1063,1306L927,1331L1238,1337Z" fill="#386aa1" stroke="#386aa1" stroke-width="1.51"/><path d="M1338,996L1387,1177L1431,942Z" fill="#2973b5" stroke="#2973b5" stroke-width="1.51"/><path d="M1350,428L1469,537L1473,369Z" fill="#5f9ccc" stroke="#5f9ccc" stroke-width="1.51"/><path d="M1362,729L1460,848L1478,639Z" fill="#3b89c2" stroke="#3b89c2" stroke-width="1.51"/><path d="M1431,942L1387,1177L1481,1194Z" fill="#246caf" stroke="#246caf" stroke-width="1.51"/><path d="M1314,138L1509,249L1512,50Z" fill="#82aad5" stroke="#82aad5" stroke-width="1.51"/><path d="M1330,-48L1512,50L1518,-43Z" fill="#8cb0d8" stroke="#8cb0d8" stroke-width="1.51"/><path d="M1448,-182L1330,-48L1518,-43Z" fill="#92b4da" stroke="#92b4da" stroke-width="1.51"/><path d="M1301,264L1473,369L1509,249Z" fill="#73a5d1" stroke="#73a5d1" stroke-width="1.51"/><path d="M1314,138L1301,264L1509,249Z" fill="#7dacd5" stroke="#7dacd5" stroke-width="1.51"/><path d="M1330,-48L1314,138L1512,50Z" fill="#8bb1d9" stroke="#8bb1d9" stroke-width="1.51"/><path d="M1290,1270L1238,1337L1441,1275Z" fill="#26629e" stroke="#26629e" stroke-width="1.51"/><path d="M1469,537L1290,518L1478,639Z" fill="#4f96c9" stroke="#4f96c9" stroke-width="1.51"/><path d="M1290,518L1362,729L1478,639Z" fill="#4a93c7" stroke="#4a93c7" stroke-width="1.51"/><path d="M1387,1177L1441,1275L1481,1194Z" fill="#2162a5" stroke="#2162a5" stroke-width="1.51"/><path d="M1301,264L1350,428L1473,369Z" fill="#6da5d0" stroke="#6da5d0" stroke-width="1.51"/><path d="M1350,428L1290,518L1469,537Z" fill="#5a9dcc" stroke="#5a9dcc" stroke-width="1.51"/><path d="M1283,828L1431,942L1460,848Z" fill="#3380bd" stroke="#3380bd" stroke-width="1.51"/><path d="M1362,729L1283,828L1460,848Z" fill="#3987c1" stroke="#3987c1" stroke-width="1.51"/><path d="M1330,-237L1330,-48L1448,-182Z" fill="#98badd" stroke="#98badd" stroke-width="1.51"/><path d="M1387,1177L1290,1270L1441,1275Z" fill="#2464a4" stroke="#2464a4" stroke-width="1.51"/><path d="M1283,828L1338,996L1431,942Z" fill="#317fbd" stroke="#317fbd" stroke-width="1.51"/><path d="M631,-208L731,-210L923,-254Z" fill="#c0dbed" stroke="#c0dbed" stroke-width="1.51"/><path d="M1228,59L1314,138L1330,-48Z" fill="#8eb7db" stroke="#8eb7db" stroke-width="1.51"/><path d="M1290,518L1185,647L1362,729Z" fill="#4e98ca" stroke="#4e98ca" stroke-width="1.51"/><path d="M1338,996L1230,1122L1387,1177Z" fill="#2b72b3" stroke="#2b72b3" stroke-width="1.51"/><path d="M1230,1122L1290,1270L1387,1177Z" fill="#296cac" stroke="#296cac" stroke-width="1.51"/><path d="M1044,-220L1148,-167L1330,-237Z" fill="#a4c6e4" stroke="#a4c6e4" stroke-width="1.51"/><path d="M1148,-167L1330,-48L1330,-237Z" fill="#9cc0e0" stroke="#9cc0e0" stroke-width="1.51"/><path d="M1283,828L1204,949L1338,996Z" fill="#3582be" stroke="#3582be" stroke-width="1.51"/><path d="M1301,264L1186,406L1350,428Z" fill="#70abd2" stroke="#70abd2" stroke-width="1.51"/><path d="M1185,647L1283,828L1362,729Z" fill="#4392c6" stroke="#4392c6" stroke-width="1.51"/><path d="M1148,-167L1182,-28L1330,-48Z" fill="#99c0e0" stroke="#99c0e0" stroke-width="1.51"/><path d="M1186,406L1290,518L1350,428Z" fill="#64a5d0" stroke="#64a5d0" stroke-width="1.51"/><path d="M1175,284L1186,406L1301,264Z" fill="#78b0d5" stroke="#78b0d5" stroke-width="1.51"/><path d="M1182,-28L1228,59L1330,-48Z" fill="#94bbde" stroke="#94bbde" stroke-width="1.51"/><path d="M1204,949L1230,1122L1338,996Z" fill="#317cb9" stroke="#317cb9" stroke-width="1.51"/><path d="M1185,647L1150,808L1283,828Z" fill="#4593c7" stroke="#4593c7" stroke-width="1.51"/><path d="M1175,284L1301,264L1314,138Z" fill="#80b2d7" stroke="#80b2d7" stroke-width="1.51"/><path d="M1228,59L1175,284L1314,138Z" fill="#88b5da" stroke="#88b5da" stroke-width="1.51"/><path d="M1186,406L1149,506L1290,518Z" fill="#65a7d1" stroke="#65a7d1" stroke-width="1.51"/><path d="M1149,506L1185,647L1290,518Z" fill="#5aa1cf" stroke="#5aa1cf" stroke-width="1.51"/><path d="M1080,229L1175,284L1228,59Z" fill="#89b8db" stroke="#89b8db" stroke-width="1.51"/><path d="M1230,1122L1063,1306L1238,1337Z" fill="#326ca7" stroke="#326ca7" stroke-width="1.51"/><path d="M1150,808L1204,949L1283,828Z" fill="#3e8ac2" stroke="#3e8ac2" stroke-width="1.51"/><path d="M1230,1122L1238,1337L1290,1270Z" fill="#2c6aa7" stroke="#2c6aa7" stroke-width="1.51"/><path d="M1204,949L1076,1014L1230,1122Z" fill="#397fbb" stroke="#397fbb" stroke-width="1.51"/><path d="M1025,1145L1063,1306L1230,1122Z" fill="#3975b1" stroke="#3975b1" stroke-width="1.51"/><path d="M998,38L1080,229L1228,59Z" fill="#94bedf" stroke="#94bedf" stroke-width="1.51"/><path d="M1076,1014L1025,1145L1230,1122Z" fill="#3c7db9" stroke="#3c7db9" stroke-width="1.51"/><path d="M1182,-28L998,38L1228,59Z" fill="#98bfe0" stroke="#98bfe0" stroke-width="1.51"/><path d="M1075,643L1075,804L1150,808Z" fill="#4e99cb" stroke="#4e99cb" stroke-width="1.51"/><path d="M1075,643L1150,808L1185,647Z" fill="#509acb" stroke="#509acb" stroke-width="1.51"/><path d="M1149,506L1075,643L1185,647Z" fill="#5aa1cf" stroke="#5aa1cf" stroke-width="1.51"/><path d="M1150,808L1075,804L1204,949Z" fill="#448fc5" stroke="#448fc5" stroke-width="1.51"/><path d="M1075,804L1076,1014L1204,949Z" fill="#428ac2" stroke="#428ac2" stroke-width="1.51"/><path d="M1080,229L1025,424L1175,284Z" fill="#80b6d9" stroke="#80b6d9" stroke-width="1.51"/><path d="M1148,-167L1004,-105L1182,-28Z" fill="#a1c6e3" stroke="#a1c6e3" stroke-width="1.51"/><path d="M1070,493L1149,506L1186,406Z" fill="#6aabd4" stroke="#6aabd4" stroke-width="1.51"/><path d="M1025,424L1070,493L1186,406Z" fill="#70aed5" stroke="#70aed5" stroke-width="1.51"/><path d="M1175,284L1025,424L1186,406Z" fill="#77b1d6" stroke="#77b1d6" stroke-width="1.51"/><path d="M1004,-105L998,38L1182,-28Z" fill="#9fc5e3" stroke="#9fc5e3" stroke-width="1.51"/><path d="M1070,493L1075,643L1149,506Z" fill="#62a7d2" stroke="#62a7d2" stroke-width="1.51"/><path d="M1044,-220L1004,-105L1148,-167Z" fill="#a7cae5" stroke="#a7cae5" stroke-width="1.51"/><path d="M148,1274L-35,1287L383,1307Z" fill="#7a8bb7" stroke="#7a8bb7" stroke-width="1.51"/><path d="M1025,1145L922,1169L1063,1306Z" fill="#4178b2" stroke="#4178b2" stroke-width="1.51"/><path d="M922,1169L927,1331L1063,1306Z" fill="#4174aa" stroke="#4174aa" stroke-width="1.51"/><path d="M1070,493L895,498L1075,643Z" fill="#67abd4" stroke="#67abd4" stroke-width="1.51"/><path d="M895,498L875,700L1075,643Z" fill="#65a9d3" stroke="#65a9d3" stroke-width="1.51"/><path d="M1075,643L875,700L1075,804Z" fill="#589fcd" stroke="#589fcd" stroke-width="1.51"/><path d="M915,1010L1025,1145L1076,1014Z" fill="#4585be" stroke="#4585be" stroke-width="1.51"/><path d="M1075,804L910,889L1076,1014Z" fill="#4a90c6" stroke="#4a90c6" stroke-width="1.51"/><path d="M910,889L915,1010L1076,1014Z" fill="#4a8dc5" stroke="#4a8dc5" stroke-width="1.51"/><path d="M998,38L928,112L1080,229Z" fill="#99c2e2" stroke="#99c2e2" stroke-width="1.51"/><path d="M928,112L937,295L1080,229Z" fill="#91c0df" stroke="#91c0df" stroke-width="1.51"/><path d="M937,295L1025,424L1080,229Z" fill="#85badb" stroke="#85badb" stroke-width="1.51"/><path d="M875,700L910,889L1075,804Z" fill="#559ccc" stroke="#559ccc" stroke-width="1.51"/><path d="M1025,424L895,498L1070,493Z" fill="#72b1d7" stroke="#72b1d7" stroke-width="1.51"/><path d="M915,1010L922,1169L1025,1145Z" fill="#4783bc" stroke="#4783bc" stroke-width="1.51"/><path d="M937,295L896,410L1025,424Z" fill="#81b9db" stroke="#81b9db" stroke-width="1.51"/><path d="M923,-254L1004,-105L1044,-220Z" fill="#adcfe8" stroke="#adcfe8" stroke-width="1.51"/><path d="M838,-74L998,38L1004,-105Z" fill="#a7cce6" stroke="#a7cce6" stroke-width="1.51"/><path d="M896,410L895,498L1025,424Z" fill="#7ab5d9" stroke="#7ab5d9" stroke-width="1.51"/><path d="M923,-254L838,-74L1004,-105Z" fill="#afd1e9" stroke="#afd1e9" stroke-width="1.51"/><path d="M838,-74L928,112L998,38Z" fill="#a4cae5" stroke="#a4cae5" stroke-width="1.51"/><path d="M790,583L875,700L895,498Z" fill="#70afd6" stroke="#70afd6" stroke-width="1.51"/><path d="M915,1010L680,1118L922,1169Z" fill="#5488be" stroke="#5488be" stroke-width="1.51"/><path d="M731,-210L838,-74L923,-254Z" fill="#b8d6eb" stroke="#b8d6eb" stroke-width="1.51"/><path d="M922,1169L730,1330L927,1331Z" fill="#4c78ac" stroke="#4c78ac" stroke-width="1.51"/><path d="M838,-74L722,58L928,112Z" fill="#abcee7" stroke="#abcee7" stroke-width="1.51"/><path d="M928,112L757,195L937,295Z" fill="#9bc5e2" stroke="#9bc5e2" stroke-width="1.51"/><path d="M757,195L896,410L937,295Z" fill="#91c2df" stroke="#91c2df" stroke-width="1.51"/><path d="M757,195L713,413L896,410Z" fill="#93c3df" stroke="#93c3df" stroke-width="1.51"/><path d="M875,700L680,834L910,889Z" fill="#63a1ce" stroke="#63a1ce" stroke-width="1.51"/><path d="M910,889L722,934L915,1010Z" fill="#5894c8" stroke="#5894c8" stroke-width="1.51"/><path d="M722,58L757,195L928,112Z" fill="#a8cce5" stroke="#a8cce5" stroke-width="1.51"/><path d="M680,1118L730,1330L922,1169Z" fill="#5681b7" stroke="#5681b7" stroke-width="1.51"/><path d="M680,834L722,934L910,889Z" fill="#639dcc" stroke="#639dcc" stroke-width="1.51"/><path d="M722,934L680,1118L915,1010Z" fill="#5d91c5" stroke="#5d91c5" stroke-width="1.51"/><path d="M285,-213L465,-175L631,-208Z" fill="#d3e4f3" stroke="#d3e4f3" stroke-width="1.51"/><path d="M713,413L790,583L895,498Z" fill="#7fb8da" stroke="#7fb8da" stroke-width="1.51"/><path d="M713,413L895,498L896,410Z" fill="#83bbdb" stroke="#83bbdb" stroke-width="1.51"/><path d="M790,583L699,672L875,700Z" fill="#71aed5" stroke="#71aed5" stroke-width="1.51"/><path d="M699,672L680,834L875,700Z" fill="#6daad3" stroke="#6daad3" stroke-width="1.51"/><path d="M731,-210L696,-96L838,-74Z" fill="#bbd8eb" stroke="#bbd8eb" stroke-width="1.51"/><path d="M696,-96L722,58L838,-74Z" fill="#b5d4e9" stroke="#b5d4e9" stroke-width="1.51"/><path d="M619,246L618,355L713,413Z" fill="#9ecae1" stroke="#9ecae1" stroke-width="1.51"/><path d="M619,246L713,413L757,195Z" fill="#a0cae2" stroke="#a0cae2" stroke-width="1.51"/><path d="M713,413L561,570L790,583Z" fill="#86bbdc" stroke="#86bbdc" stroke-width="1.51"/><path d="M561,570L699,672L790,583Z" fill="#7eb6d9" stroke="#7eb6d9" stroke-width="1.51"/><path d="M561,570L602,658L699,672Z" fill="#81b6d9" stroke="#81b6d9" stroke-width="1.51"/><path d="M589,937L680,1118L722,934Z" fill="#6798c9" stroke="#6798c9" stroke-width="1.51"/><path d="M680,1118L602,1122L730,1330Z" fill="#6088ba" stroke="#6088ba" stroke-width="1.51"/><path d="M602,1122L547,1338L730,1330Z" fill="#6182b2" stroke="#6182b2" stroke-width="1.51"/><path d="M722,58L620,74L757,195Z" fill="#b0d1e8" stroke="#b0d1e8" stroke-width="1.51"/><path d="M620,74L619,246L757,195Z" fill="#aed0e6" stroke="#aed0e6" stroke-width="1.51"/><path d="M589,937L602,1122L680,1118Z" fill="#6994c6" stroke="#6994c6" stroke-width="1.51"/><path d="M631,-208L623,-109L696,-96Z" fill="#c3dded" stroke="#c3dded" stroke-width="1.51"/><path d="M623,-109L620,74L696,-96Z" fill="#bdd9ec" stroke="#bdd9ec" stroke-width="1.51"/><path d="M558,788L680,834L699,672Z" fill="#75acd3" stroke="#75acd3" stroke-width="1.51"/><path d="M602,658L558,788L699,672Z" fill="#7bb1d6" stroke="#7bb1d6" stroke-width="1.51"/><path d="M696,-96L620,74L722,58Z" fill="#b7d6e9" stroke="#b7d6e9" stroke-width="1.51"/><path d="M631,-208L696,-96L731,-210Z" fill="#c2dded" stroke="#c2dded" stroke-width="1.51"/><path d="M618,355L561,570L713,413Z" fill="#93c3df" stroke="#93c3df" stroke-width="1.51"/><path d="M680,834L589,937L722,934Z" fill="#6ca0cd" stroke="#6ca0cd" stroke-width="1.51"/><path d="M481,1179L547,1338L602,1122Z" fill="#6989ba" stroke="#6989ba" stroke-width="1.51"/><path d="M558,788L589,937L680,834Z" fill="#73a6d0" stroke="#73a6d0" stroke-width="1.51"/><path d="M589,937L413,936L602,1122Z" fill="#719ccb" stroke="#719ccb" stroke-width="1.51"/><path d="M421,385L561,570L618,355Z" fill="#9bc6e2" stroke="#9bc6e2" stroke-width="1.51"/><path d="M469,293L618,355L619,246Z" fill="#a8cee4" stroke="#a8cee4" stroke-width="1.51"/><path d="M485,-98L395,51L620,74Z" fill="#c4dbee" stroke="#c4dbee" stroke-width="1.51"/><path d="M469,293L619,246L620,74Z" fill="#b1d2e7" stroke="#b1d2e7" stroke-width="1.51"/><path d="M395,51L469,293L620,74Z" fill="#bcd6eb" stroke="#bcd6eb" stroke-width="1.51"/><path d="M485,-98L620,74L623,-109Z" fill="#c2dbed" stroke="#c2dbed" stroke-width="1.51"/><path d="M465,-175L485,-98L623,-109Z" fill="#cae0f0" stroke="#cae0f0" stroke-width="1.51"/><path d="M465,-175L623,-109L631,-208Z" fill="#c9e0ef" stroke="#c9e0ef" stroke-width="1.51"/><path d="M413,936L481,1179L602,1122Z" fill="#7196c7" stroke="#7196c7" stroke-width="1.51"/><path d="M469,293L421,385L618,355Z" fill="#a8cee4" stroke="#a8cee4" stroke-width="1.51"/><path d="M421,385L398,533L561,570Z" fill="#99c4e1" stroke="#99c4e1" stroke-width="1.51"/><path d="M558,788L400,852L589,937Z" fill="#7aa8d3" stroke="#7aa8d3" stroke-width="1.51"/><path d="M400,852L413,936L589,937Z" fill="#7aa5d2" stroke="#7aa5d2" stroke-width="1.51"/><path d="M561,570L430,688L602,658Z" fill="#87b8db" stroke="#87b8db" stroke-width="1.51"/><path d="M430,688L558,788L602,658Z" fill="#81b4d8" stroke="#81b4d8" stroke-width="1.51"/><path d="M413,936L319,1099L481,1179Z" fill="#7898ca" stroke="#7898ca" stroke-width="1.51"/><path d="M481,1179L383,1307L547,1338Z" fill="#6b85b4" stroke="#6b85b4" stroke-width="1.51"/><path d="M398,533L430,688L561,570Z" fill="#90bdde" stroke="#90bdde" stroke-width="1.51"/><path d="M430,688L400,852L558,788Z" fill="#82b0d7" stroke="#82b0d7" stroke-width="1.51"/><path d="M-56,-249L120,-191L285,-213Z" fill="#e5eff9" stroke="#e5eff9" stroke-width="1.51"/><path d="M280,67L241,283L395,51Z" fill="#c8dcf0" stroke="#c8dcf0" stroke-width="1.51"/><path d="M395,51L241,283L469,293Z" fill="#bed7ec" stroke="#bed7ec" stroke-width="1.51"/><path d="M465,-175L328,-37L485,-98Z" fill="#cfe2f2" stroke="#cfe2f2" stroke-width="1.51"/><path d="M328,-37L395,51L485,-98Z" fill="#cce0f1" stroke="#cce0f1" stroke-width="1.51"/><path d="M278,1238L383,1307L481,1179Z" fill="#738aba" stroke="#738aba" stroke-width="1.51"/><path d="M319,1099L278,1238L481,1179Z" fill="#7791c4" stroke="#7791c4" stroke-width="1.51"/><path d="M288,991L319,1099L413,936Z" fill="#7ea0cf" stroke="#7ea0cf" stroke-width="1.51"/><path d="M331,827L400,852L430,688Z" fill="#86b1d8" stroke="#86b1d8" stroke-width="1.51"/><path d="M285,-213L328,-37L465,-175Z" fill="#d6e5f4" stroke="#d6e5f4" stroke-width="1.51"/><path d="M241,283L421,385L469,293Z" fill="#b3d2e8" stroke="#b3d2e8" stroke-width="1.51"/><path d="M241,283L278,409L421,385Z" fill="#b1d2e8" stroke="#b1d2e8" stroke-width="1.51"/><path d="M278,409L398,533L421,385Z" fill="#a5cbe5" stroke="#a5cbe5" stroke-width="1.51"/><path d="M230,663L331,827L430,688Z" fill="#8db8dc" stroke="#8db8dc" stroke-width="1.51"/><path d="M398,533L261,574L430,688Z" fill="#96c0e0" stroke="#96c0e0" stroke-width="1.51"/><path d="M261,574L230,663L430,688Z" fill="#95bfdf" stroke="#95bfdf" stroke-width="1.51"/><path d="M400,852L331,827L413,936Z" fill="#82abd5" stroke="#82abd5" stroke-width="1.51"/><path d="M331,827L288,991L413,936Z" fill="#82a7d4" stroke="#82a7d4" stroke-width="1.51"/><path d="M278,1238L148,1274L383,1307Z" fill="#768ab8" stroke="#768ab8" stroke-width="1.51"/><path d="M278,409L261,574L398,533Z" fill="#a1c8e4" stroke="#a1c8e4" stroke-width="1.51"/><path d="M328,-37L280,67L395,51Z" fill="#cddff2" stroke="#cddff2" stroke-width="1.51"/><path d="M165,104L241,283L280,67Z" fill="#c9ddf0" stroke="#c9ddf0" stroke-width="1.51"/><path d="M285,-213L141,-34L328,-37Z" fill="#d8e6f5" stroke="#d8e6f5" stroke-width="1.51"/><path d="M230,663L99,817L331,827Z" fill="#8fb7dc" stroke="#8fb7dc" stroke-width="1.51"/><path d="M144,950L288,991L331,827Z" fill="#85aad5" stroke="#85aad5" stroke-width="1.51"/><path d="M99,817L144,950L331,827Z" fill="#8cb0d8" stroke="#8cb0d8" stroke-width="1.51"/><path d="M116,1151L278,1238L319,1099Z" fill="#7d95c6" stroke="#7d95c6" stroke-width="1.51"/><path d="M141,-34L280,67L328,-37Z" fill="#d2e3f3" stroke="#d2e3f3" stroke-width="1.51"/><path d="M120,-191L141,-34L285,-213Z" fill="#ddeaf7" stroke="#ddeaf7" stroke-width="1.51"/><path d="M288,991L116,1151L319,1099Z" fill="#809ccb" stroke="#809ccb" stroke-width="1.51"/><path d="M241,283L135,387L278,409Z" fill="#b5d4e9" stroke="#b5d4e9" stroke-width="1.51"/><path d="M122,484L261,574L278,409Z" fill="#a7cbe6" stroke="#a7cbe6" stroke-width="1.51"/><path d="M116,1151L148,1274L278,1238Z" fill="#7c92c0" stroke="#7c92c0" stroke-width="1.51"/><path d="M141,-34L165,104L280,67Z" fill="#d2e2f3" stroke="#d2e2f3" stroke-width="1.51"/><path d="M144,950L116,1151L288,991Z" fill="#84a2cf" stroke="#84a2cf" stroke-width="1.51"/><path d="M135,387L122,484L278,409Z" fill="#b0d1e8" stroke="#b0d1e8" stroke-width="1.51"/><path d="M135,639L99,817L230,663Z" fill="#96bedf" stroke="#96bedf" stroke-width="1.51"/><path d="M165,104L88,279L241,283Z" fill="#c5dcee" stroke="#c5dcee" stroke-width="1.51"/><path d="M135,639L230,663L261,574Z" fill="#9ac2e1" stroke="#9ac2e1" stroke-width="1.51"/><path d="M122,484L135,639L261,574Z" fill="#a1c7e4" stroke="#a1c7e4" stroke-width="1.51"/><path d="M88,279L135,387L241,283Z" fill="#bcd8eb" stroke="#bcd8eb" stroke-width="1.51"/><path d="M0,955L24,1154L116,1151Z" fill="#88a1ce" stroke="#88a1ce" stroke-width="1.51"/><path d="M120,-191L20,-36L141,-34Z" fill="#ddeaf7" stroke="#ddeaf7" stroke-width="1.51"/><path d="M20,-36L25,124L141,-34Z" fill="#d9e7f5" stroke="#d9e7f5" stroke-width="1.51"/><path d="M0,955L116,1151L144,950Z" fill="#89a6d2" stroke="#89a6d2" stroke-width="1.51"/><path d="M141,-34L25,124L165,104Z" fill="#d4e4f3" stroke="#d4e4f3" stroke-width="1.51"/><path d="M25,124L88,279L165,104Z" fill="#cde0f1" stroke="#cde0f1" stroke-width="1.51"/><path d="M-55,634L99,817L135,639Z" fill="#9bc1e1" stroke="#9bc1e1" stroke-width="1.51"/><path d="M122,484L-38,553L135,639Z" fill="#a6cae6" stroke="#a6cae6" stroke-width="1.51"/><path d="M32,435L122,484L135,387Z" fill="#b2d2e9" stroke="#b2d2e9" stroke-width="1.51"/><path d="M99,817L0,955L144,950Z" fill="#8eafd8" stroke="#8eafd8" stroke-width="1.51"/><path d="M116,1151L24,1154L148,1274Z" fill="#8196c5" stroke="#8196c5" stroke-width="1.51"/><path d="M24,1154L-35,1287L148,1274Z" fill="#8193bf" stroke="#8193bf" stroke-width="1.51"/><path d="M-38,553L-55,634L135,639Z" fill="#a4c8e5" stroke="#a4c8e5" stroke-width="1.51"/><path d="M88,279L32,435L135,387Z" fill="#bad7ea" stroke="#bad7ea" stroke-width="1.51"/><path d="M-55,634L-35,862L99,817Z" fill="#99bddf" stroke="#99bddf" stroke-width="1.51"/><path d="M-35,862L0,955L99,817Z" fill="#92b3da" stroke="#92b3da" stroke-width="1.51"/><path d="M-56,-249L20,-36L120,-191Z" fill="#e5eff9" stroke="#e5eff9" stroke-width="1.51"/><path d="M32,435L-38,553L122,484Z" fill="#aed0e9" stroke="#aed0e9" stroke-width="1.51"/><path d="M25,124L-52,204L88,279Z" fill="#cde1f1" stroke="#cde1f1" stroke-width="1.51"/><path d="M-128,393L32,435L88,279Z" fill="#bdd9ec" stroke="#bdd9ec" stroke-width="1.51"/><path d="M-52,204L-128,393L88,279Z" fill="#c6deee" stroke="#c6deee" stroke-width="1.51"/><path d="M-154,-236L-217,-109L-56,-249Z" fill="#eef5fc" stroke="#eef5fc" stroke-width="1.51"/><path d="M-56,-249L-217,-109L20,-36Z" fill="#e7f1fa" stroke="#e7f1fa" stroke-width="1.51"/><path d="M0,955L-132,1104L24,1154Z" fill="#8ca3d0" stroke="#8ca3d0" stroke-width="1.51"/><path d="M20,-36L-126,116L25,124Z" fill="#d9e8f5" stroke="#d9e8f5" stroke-width="1.51"/><path d="M-115,519L-38,553L32,435Z" fill="#b0d1e9" stroke="#b0d1e9" stroke-width="1.51"/><path d="M-128,393L-115,519L32,435Z" fill="#b8d6eb" stroke="#b8d6eb" stroke-width="1.51"/><path d="M-123,215L-128,393L-52,204Z" fill="#cbe1f0" stroke="#cbe1f0" stroke-width="1.51"/><path d="M-55,634L-149,637L-35,862Z" fill="#a0c3e2" stroke="#a0c3e2" stroke-width="1.51"/><path d="M-132,1104L-35,1287L24,1154Z" fill="#889ac8" stroke="#889ac8" stroke-width="1.51"/><path d="M-126,116L-52,204L25,124Z" fill="#d5e5f4" stroke="#d5e5f4" stroke-width="1.51"/><path d="M-217,-109L-126,116L20,-36Z" fill="#e1edf8" stroke="#e1edf8" stroke-width="1.51"/><path d="M-149,637L-168,882L-35,862Z" fill="#9dbddf" stroke="#9dbddf" stroke-width="1.51"/><path d="M-213,1004L-132,1104L0,955Z" fill="#92aad5" stroke="#92aad5" stroke-width="1.51"/><path d="M-35,862L-168,882L0,955Z" fill="#95b3da" stroke="#95b3da" stroke-width="1.51"/><path d="M-168,882L-213,1004L0,955Z" fill="#95b1d9" stroke="#95b1d9" stroke-width="1.51"/><path d="M-115,519L-55,634L-38,553Z" fill="#abcde7" stroke="#abcde7" stroke-width="1.51"/><path d="M-132,1104L-173,1297L-35,1287Z" fill="#8897c3" stroke="#8897c3" stroke-width="1.51"/><path d="M-115,519L-149,637L-55,634Z" fill="#abcce7" stroke="#abcce7" stroke-width="1.51"/><path d="M-126,116L-123,215L-52,204Z" fill="#d4e5f4" stroke="#d4e5f4" stroke-width="1.51"/><path d="M-128,393L-149,637L-115,519Z" fill="#b2d3ea" stroke="#b2d3ea" stroke-width="1.51"/><path d="M-213,1004L-173,1297L-132,1104Z" fill="#8fa2ce" stroke="#8fa2ce" stroke-width="1.51"/><path d="M-126,116L-217,-109L-123,215Z" fill="#deeaf7" stroke="#deeaf7" stroke-width="1.51"/><path d="M-217,-109L-128,393L-123,215Z" fill="#d8e7f4" stroke="#d8e7f4" stroke-width="1.51"/><path d="M-217,-109L-149,637L-128,393Z" fill="#cbe1f0" stroke="#cbe1f0" stroke-width="1.51"/><path d="M-213,1004L-168,882L-149,637Z" fill="#9dbcde" stroke="#9dbcde" stroke-width="1.51"/><path d="M-217,-109L-213,1004L-149,637Z" fill="#b6d4eb" stroke="#b6d4eb" stroke-width="1.51"/></svg>