<?xml version="1.0" encoding="iso-8859-1"?>
<!-- Generator: Adobe Illustrator 19.0.0, SVG Export Plug-In . SVG Version: 6.00 Build 0)  -->
<svg version="1.1" id="Layer_1" xmlns="http://www.w3.org/2000/svg" xmlns:xlink="http://www.w3.org/1999/xlink" x="0px" y="0px"
	 viewBox="0 0 512 512" style="enable-background:new 0 0 512 512;" xml:space="preserve">
<polygon style="fill:#00DDC2;" points="214.596,246.197 157.875,143.871 121.762,163.889 167.387,246.197 "/>
<polygon style="fill:#FDC35C;" points="447.073,115.918 374.858,246.197 280.438,246.197 374.847,75.877 "/>
<rect x="218.484" y="74.549" style="fill:#00DDC2;" width="61.935" height="171.652"/>
<rect x="218.484" y="115.838" style="fill:#FFFFFF;" width="61.935" height="25.806"/>
<rect x="218.484" y="74.549" style="fill:#FF5252;" width="61.935" height="41.29"/>
<polygon style="fill:#FFFFFF;" points="152.431,70.175 145.364,121.301 109.251,141.318 62.149,120.219 62.25,13.943 "/>
<g>
	
		<rect x="92.268" y="129.69" transform="matrix(-0.8746 0.4848 -0.4848 -0.8746 319.4993 202.5578)" style="fill:#FDC35C;" width="82.578" height="25.806"/>
	<rect x="125.582" y="246.2" style="fill:#FDC35C;" width="258.061" height="232.255"/>
</g>
<rect x="161.711" y="478.455" style="fill:#FF5252;" width="185.804" height="25.806"/>
<rect x="151.965" y="181.209" transform="matrix(0.4848 0.8746 -0.8746 0.4848 259.4662 -62.5845)" width="61.784" height="15.483"/>
<path d="M377.866,86.403l58.684,32.533l-7.506,13.542l-20.315-11.26l-7.507,13.542l20.314,11.26l-9.383,16.929l-11.287-6.256
	l-7.505,13.542l11.287,6.256l-9.383,16.929l-20.316-11.262l-7.505,13.542l20.316,11.261l-8.225,14.839l13.542,7.505L457.597,112.9
	l-85.768-47.548l-95.952,173.104h-18.686v-76.169h-15.484v76.169h-15.484v-89.072h46.451v54.265h15.484V66.804H210.74v171.652
	h-38.784l-39.669-71.55l54.168-30.026l-20.016-36.112l-11.286,6.256l5.635-40.762L54.522,0l-0.119,125.232l37.553,16.821
	l-11.284,6.254l20.017,36.113l18.057-10.01l35.507,64.042H99.774v15.484h309.673v-15.484H293.581L377.866,86.403z M226.224,133.9
	v-10.322h46.451V133.9H226.224z M272.675,82.287v25.805h-46.451V82.287H272.675z M99.771,73.914c2.725,0,5.372,1.44,6.784,3.988
	c1.003,1.808,1.241,3.899,0.67,5.887c-0.57,1.988-1.88,3.635-3.688,4.638c-1.811,1.003-3.901,1.241-5.887,0.67
	c-1.988-0.57-3.635-1.88-4.637-3.688c-2.07-3.734-0.715-8.455,3.017-10.525C97.216,74.226,98.501,73.914,99.771,73.914z
	 M69.896,115.206l0.067-71.379l12.434,22.432c-6.332,7.164-7.82,17.829-2.927,26.656c3.007,5.425,7.947,9.356,13.912,11.066
	c2.123,0.609,4.286,0.91,6.435,0.91c3.887,0,7.731-0.986,11.226-2.922c5.426-3.007,9.356-7.948,11.067-13.912
	s0.996-12.236-2.012-17.662c-4.894-8.828-14.727-13.215-24.157-11.642L83.506,36.321l60.569,37.767l-5.85,42.32l-29.34,16.264
	L69.896,115.206z M101.719,154.345l58.684-32.529l5.005,9.028l-58.684,32.529L101.719,154.345z"/>
<rect x="148.808" y="284.91" width="15.484" height="154.837"/>
<path d="M135.903,486.194h18.064V512h201.288v-25.806h18.064V470.71H135.903L135.903,486.194L135.903,486.194z M339.771,496.516
	H169.45v-10.322h170.32V496.516z"/>
<g>
</g>
<g>
</g>
<g>
</g>
<g>
</g>
<g>
</g>
<g>
</g>
<g>
</g>
<g>
</g>
<g>
</g>
<g>
</g>
<g>
</g>
<g>
</g>
<g>
</g>
<g>
</g>
<g>
</g>
</svg>
