<?xml version="1.0" encoding="iso-8859-1"?>
<!-- Generator: Adobe Illustrator 19.0.0, SVG Export Plug-In . SVG Version: 6.00 Build 0)  -->
<svg version="1.1" id="Layer_1" xmlns="http://www.w3.org/2000/svg" xmlns:xlink="http://www.w3.org/1999/xlink" x="0px" y="0px"
	 viewBox="0 0 512 512" style="enable-background:new 0 0 512 512;" xml:space="preserve">
<rect x="166.784" y="404.938" style="fill:#CCCBCA;" width="139.008" height="61.148"/>
<rect x="133.427" y="466.097" style="fill:#E6E5E5;" width="205.696" height="16.689"/>
<path style="fill:#3F4A5A;" d="M0,349.345V45.896c0-4.268,1.631-8.54,4.884-11.799c3.261-3.259,7.524-4.882,11.794-4.882h439.209
	c4.257,0,8.535,1.623,11.786,4.882c3.259,3.256,4.887,7.532,4.887,11.799v303.45H0z"/>
<rect x="30.582" y="59.789" style="fill:#FFFFFF;" width="411.418" height="258.97"/>
<path style="fill:#E6E5E5;" d="M472.563,388.255c0,4.27-1.628,8.543-4.887,11.794c-3.251,3.261-7.526,4.895-11.786,4.895H16.681
	c-4.27,0-8.532-1.633-11.794-4.895C1.631,396.797,0,392.525,0,388.255v-38.909h472.563V388.255z"/>
<g>
	<rect x="47.263" y="76.47" style="fill:#F67656;" width="114.893" height="38.917"/>
	<rect x="178.826" y="76.47" style="fill:#F67656;" width="114.895" height="38.917"/>
	<rect x="310.4" y="76.47" style="fill:#F67656;" width="114.9" height="38.917"/>
	<rect x="47.263" y="132.063" style="fill:#F67656;" width="114.893" height="76.669"/>
	<rect x="178.826" y="132.063" style="fill:#F67656;" width="114.895" height="76.669"/>
	<rect x="310.4" y="132.063" style="fill:#F67656;" width="114.9" height="76.669"/>
	<rect x="47.263" y="225.405" style="fill:#F67656;" width="378.061" height="76.672"/>
</g>
<path style="fill:#3F4A5A;" d="M494.07,225.411H389.921c-9.876,0-17.948,8.067-17.948,17.969v221.443
	c0,9.892,8.069,17.958,17.948,17.958H494.07c9.871,0,17.93-8.064,17.93-17.958V243.379C512,233.477,503.944,225.411,494.07,225.411z
	"/>
<rect x="382.131" y="264.317" style="fill:#FFFFFF;" width="119.731" height="179.584"/>
<g>
	<path style="fill:#333C49;" d="M431.045,467.561c-2.012,0-3.653-1.649-3.653-3.674v-1.108c0-2.025,1.641-3.656,3.653-3.656h21.891
		c1.999,0,3.651,1.631,3.651,3.656v1.108c0,2.025-1.651,3.674-3.651,3.674H431.045z"/>
	<path style="fill:#333C49;" d="M446.956,244.905c0,2.755-2.209,4.966-4.974,4.966c-2.724,0-4.956-2.212-4.956-4.966
		c0-2.729,2.23-4.977,4.956-4.977C444.746,239.928,446.956,242.173,446.956,244.905z"/>
</g>
<path style="fill:#3F4A5A;" d="M443.794,244.905c0,0.978-0.806,1.782-1.807,1.782c-1.001,0-1.807-0.804-1.807-1.782
	c0-1.001,0.806-1.82,1.807-1.82C442.987,243.085,443.794,243.904,443.794,244.905z"/>
<g>
	<rect x="391.194" y="273.405" style="fill:#F67656;" width="101.565" height="30.269"/>
	<rect x="391.194" y="312.778" style="fill:#F67656;" width="101.565" height="56.474"/>
	<rect x="391.194" y="378.34" style="fill:#F67656;" width="101.565" height="56.474"/>
</g>
<g>
</g>
<g>
</g>
<g>
</g>
<g>
</g>
<g>
</g>
<g>
</g>
<g>
</g>
<g>
</g>
<g>
</g>
<g>
</g>
<g>
</g>
<g>
</g>
<g>
</g>
<g>
</g>
<g>
</g>
</svg>
