<?xml version="1.0" encoding="iso-8859-1"?>
<!-- Generator: Adobe Illustrator 19.0.0, SVG Export Plug-In . SVG Version: 6.00 Build 0)  -->
<svg version="1.1" id="Layer_1" xmlns="http://www.w3.org/2000/svg" xmlns:xlink="http://www.w3.org/1999/xlink" x="0px" y="0px"
	 viewBox="0 0 512 512" style="enable-background:new 0 0 512 512;" xml:space="preserve">
<circle style="fill:#3F4A5A;" cx="256" cy="256" r="256"/>
<path style="fill:#FFFFFF;" d="M466.826,256c0,116.426-94.408,210.826-210.826,210.826c-116.416,0-210.826-94.4-210.826-210.826
	S139.584,45.174,256,45.174C372.419,45.174,466.826,139.574,466.826,256z"/>
<g>
	<path style="fill:#CCCBCA;" d="M383.757,396.534l-12.774-12.774l6.387-6.39c32.435-32.443,50.299-75.543,50.299-121.367
		c0-94.659-77.012-171.676-171.671-171.676S84.326,161.341,84.326,256.003c0,45.824,17.864,88.924,50.299,121.367l6.387,6.39
		l-12.774,12.774l-6.387-6.39C86.001,354.284,66.258,306.65,66.258,256c0-104.625,85.117-189.742,189.742-189.742
		S445.742,151.375,445.742,256c0,50.65-19.743,98.284-55.598,134.141L383.757,396.534z"/>
	<rect x="246.963" y="75.292" style="fill:#CCCBCA;" width="18.074" height="19.876"/>
	
		<rect x="291.156" y="81.127" transform="matrix(-0.9659 -0.2591 0.2591 -0.9659 566.5416 256.7997)" style="fill:#CCCBCA;" width="18.074" height="19.879"/>
	
		<rect x="332.349" y="98.143" transform="matrix(-0.866 -0.5 0.5 -0.866 582.9884 372.3822)" style="fill:#CCCBCA;" width="18.073" height="19.881"/>
	
		<rect x="201.871" y="82.009" transform="matrix(-0.2591 -0.9659 0.9659 -0.2591 178.751 319.2134)" style="fill:#CCCBCA;" width="19.879" height="18.074"/>
	
		<rect x="160.664" y="99.071" transform="matrix(-0.5002 -0.8659 0.8659 -0.5002 162.3238 309.9082)" style="fill:#CCCBCA;" width="19.873" height="18.073"/>
	
		<rect x="125.288" y="126.207" transform="matrix(-0.7071 -0.7071 0.7071 -0.7071 135.2169 326.4965)" style="fill:#CCCBCA;" width="19.881" height="18.073"/>
	
		<rect x="98.144" y="161.591" transform="matrix(-0.866 -0.5001 0.5001 -0.866 116.354 372.4395)" style="fill:#CCCBCA;" width="19.882" height="18.074"/>
	
		<rect x="81.092" y="202.763" transform="matrix(-0.966 -0.2587 0.2587 -0.966 124.1768 439.9393)" style="fill:#CCCBCA;" width="19.882" height="18.074"/>
	<rect x="75.272" y="246.963" style="fill:#CCCBCA;" width="19.884" height="18.074"/>
	
		<rect x="81.97" y="290.266" transform="matrix(-0.2586 -0.966 0.966 -0.2586 -175.4558 465.7525)" style="fill:#CCCBCA;" width="18.074" height="19.884"/>
	
		<rect x="99.025" y="331.458" transform="matrix(-0.4999 -0.8661 0.8661 -0.4999 -133.6016 605.6559)" style="fill:#CCCBCA;" width="18.074" height="19.886"/>
	
		<rect x="126.201" y="366.825" transform="matrix(-0.7071 -0.7071 0.7071 -0.7071 -35.5553 738.8235)" style="fill:#CCCBCA;" width="18.073" height="19.901"/>
	<rect x="246.963" y="75.292" style="fill:#CCCBCA;" width="18.074" height="30.118"/>
	
		<rect x="123.804" y="129.838" transform="matrix(-0.7073 -0.707 0.707 -0.7073 138.8961 335.2666)" style="fill:#CCCBCA;" width="30.118" height="18.075"/>
	<rect x="75.287" y="246.963" style="fill:#CCCBCA;" width="30.126" height="18.074"/>
	
		<rect x="129.829" y="358.067" transform="matrix(-0.7071 -0.7071 0.7071 -0.7071 -26.7853 735.1674)" style="fill:#CCCBCA;" width="18.073" height="30.128"/>
</g>
<path style="fill:#F67656;" d="M256,295.15c-10.452,0-20.288-4.068-27.686-11.459c-15.258-15.276-15.258-40.108,0-55.383
	c7.401-7.393,17.229-11.466,27.686-11.466c10.458,0,20.288,4.076,27.681,11.466c7.401,7.391,11.471,17.231,11.471,27.692
	c0,10.458-4.073,20.293-11.471,27.681C276.288,291.082,266.458,295.15,256,295.15z M256,234.916c-5.635,0-10.929,2.191-14.912,6.167
	c-8.215,8.225-8.215,21.599,0,29.824c7.972,7.959,21.857,7.959,29.816,0c3.983-3.983,6.177-9.283,6.177-14.907
	c0-5.635-2.194-10.934-6.177-14.917C266.926,237.1,261.629,234.916,256,234.916z"/>
<path style="fill:#3F4A5A;" d="M262.387,262.382c-3.52,3.525-9.254,3.525-12.774,0c-3.525-3.515-3.525-9.249,0-12.774
	c3.52-3.525,9.254-3.525,12.774,0C265.912,253.133,265.917,258.867,262.387,262.382z"/>
<g>
	
		<rect x="293.811" y="172.991" transform="matrix(-0.7072 -0.707 0.707 -0.7072 369.1619 571.1563)" style="fill:#F67656;" width="18.073" height="72.294"/>
	<path style="fill:#F67656;" d="M383.757,396.534l-12.774-12.774l6.387-6.39c32.435-32.443,50.299-75.543,50.299-121.367
		s-17.866-88.934-50.299-121.375l-6.387-6.385l12.774-12.774l6.387,6.385c35.855,35.858,55.598,83.492,55.598,134.149
		c0,50.65-19.743,98.284-55.598,134.141L383.757,396.534z"/>
	
		<rect x="364.096" y="123.784" transform="matrix(-0.7072 -0.707 0.707 -0.7072 538.8517 500.841)" style="fill:#F67656;" width="18.073" height="30.118"/>
	<rect x="406.579" y="246.963" style="fill:#F67656;" width="30.118" height="18.074"/>
	
		<rect x="358.087" y="364.086" transform="matrix(-0.7073 -0.7069 0.7069 -0.7073 373.3098 900.8135)" style="fill:#F67656;" width="30.116" height="18.073"/>
	
		<rect x="394.857" y="160.677" transform="matrix(-0.5001 -0.866 0.866 -0.5001 458.1296 605.6945)" style="fill:#F67656;" width="18.074" height="19.869"/>
	
		<rect x="411.91" y="201.844" transform="matrix(-0.2584 -0.966 0.966 -0.2584 325.1349 673.1565)" style="fill:#F67656;" width="18.073" height="19.875"/>
	
		<rect x="411.01" y="291.137" transform="matrix(-0.9658 -0.2593 0.2593 -0.9658 749.676 699.2348)" style="fill:#F67656;" width="19.889" height="18.074"/>
	
		<rect x="393.935" y="332.331" transform="matrix(-0.8659 -0.5002 0.5002 -0.8659 582.8494 838.9834)" style="fill:#F67656;" width="19.891" height="18.073"/>
</g>
<rect x="192.742" y="327.398" style="fill:#3F4A5A;" width="126.49" height="18.074"/>
<g>
</g>
<g>
</g>
<g>
</g>
<g>
</g>
<g>
</g>
<g>
</g>
<g>
</g>
<g>
</g>
<g>
</g>
<g>
</g>
<g>
</g>
<g>
</g>
<g>
</g>
<g>
</g>
<g>
</g>
</svg>
