<?xml version="1.0" encoding="iso-8859-1"?>
<!-- Generator: Adobe Illustrator 19.0.0, SVG Export Plug-In . SVG Version: 6.00 Build 0)  -->
<svg version="1.1" id="Layer_1" xmlns="http://www.w3.org/2000/svg" xmlns:xlink="http://www.w3.org/1999/xlink" x="0px" y="0px"
	 viewBox="0 0 512.001 512.001" style="enable-background:new 0 0 512.001 512.001;" xml:space="preserve">
<g>
	<path style="fill:#3F4A5A;" d="M256.001,263.617c-3.215,0-6.625-0.136-10.429-0.422l-4.17-0.305l-1.664-3.84
		c-17.464-40.328-57.111-67.223-101.02-68.536l-4.17-0.12l-1.838-3.75c-9.239-18.852-13.924-39.107-13.924-60.219
		c0-54.633,32.381-104.033,82.499-125.85c3.5-1.521,7.58,0.079,9.108,3.576c1.523,3.505-0.079,7.583-3.584,9.111
		c-45.064,19.625-74.184,64.041-74.184,113.162c0,17.615,3.625,34.568,10.783,50.463c46.108,2.936,87.465,30.991,107.256,72.76
		c3.535,0.161,7.137,0.161,10.67,0c19.796-41.766,61.153-69.824,107.256-72.76c7.155-15.903,10.783-32.855,10.783-50.463
		c0-49.129-29.12-93.545-74.184-113.162c-3.505-1.528-5.107-5.606-3.584-9.111c1.528-3.497,5.606-5.089,9.108-3.576
		c50.117,21.816,82.499,71.217,82.499,125.85c0,21.097-4.685,41.359-13.921,60.216l-1.838,3.75l-4.17,0.12
		c-43.899,1.313-83.558,28.209-101.023,68.536l-1.661,3.84l-4.173,0.305C262.623,263.482,259.216,263.617,256.001,263.617z"/>
	<path style="fill:#3F4A5A;" d="M256.001,303.817c-4.124,0-8.456-0.182-13.24-0.543l-26.77-2.007l-10.668-24.632
		c-11.715-27.034-38.295-45.066-67.72-45.939l-26.808-0.806l-11.786-24.072c-11.763-24.049-17.725-49.864-17.725-76.721
		c0-15.345,2.028-30.63,6.021-45.448c0.996-3.697,4.78-5.873,8.484-4.879c3.686,0.991,5.87,4.792,4.877,8.481
		c-3.681,13.647-5.548,27.72-5.548,41.848c0,24.737,5.489,48.497,16.32,70.641l8.113,16.576l18.463,0.561
		c34.76,1.016,66.168,22.321,80.008,54.264l7.34,16.96l18.437,1.385c8.888,0.673,15.534,0.673,24.399,0l18.435-1.385l7.34-16.96
		c13.839-31.944,45.251-53.248,80.018-54.264l18.455-0.561l8.118-16.576c10.826-22.152,16.315-45.911,16.315-70.641
		c0-14.121-1.866-28.191-5.54-41.848c-0.996-3.697,1.193-7.488,4.884-8.481c3.671-0.993,7.483,1.183,8.481,4.879
		c3.991,14.825,6.016,30.121,6.016,45.448c0,26.849-5.965,52.664-17.728,76.721l-11.786,24.072l-26.806,0.806
		c-29.427,0.873-56.008,18.906-67.725,45.937l-10.668,24.632l-26.767,2.007C264.461,303.633,260.127,303.817,256.001,303.817z"/>
	<path style="fill:#3F4A5A;" d="M101.814,512.001c-2.683,0-5.233-1.567-6.362-4.193c-9.403-21.888-14.172-45.069-14.172-68.92
		c0-26.847,5.962-52.662,17.723-76.721l11.794-24.072l26.801-0.806c29.43-0.873,56.013-18.903,67.725-45.942l10.668-24.617
		l26.77-2.015c9.385-0.719,16.98-0.73,26.481-0.01l26.767,2.025l10.668,24.625c11.717,27.034,38.3,45.064,67.725,45.934
		l26.806,0.806l11.786,24.072c11.763,24.056,17.728,49.871,17.728,76.721c0,23.849-4.772,47.04-14.18,68.931
		c-1.516,3.502-5.586,5.12-9.093,3.615c-3.507-1.505-5.128-5.576-3.622-9.088c8.663-20.145,13.056-41.498,13.056-63.457
		c0-24.719-5.489-48.486-16.32-70.641l-8.113-16.576l-18.463-0.553c-34.76-1.032-66.171-22.336-80.01-54.264l-7.342-16.96
		l-18.44-1.39c-8.801-0.673-15.688-0.673-24.384,0l-18.445,1.39l-7.34,16.952c-13.839,31.939-45.248,53.24-80.013,54.272
		l-18.452,0.553l-8.123,16.576c-10.826,22.152-16.317,45.921-16.317,70.641c0,21.96,4.388,43.313,13.048,63.465
		c1.508,3.505-0.113,7.575-3.625,9.08C103.653,511.82,102.723,512.001,101.814,512.001z"/>
	<path style="fill:#3F4A5A;" d="M383.496,472.705c-0.471,0-0.95-0.056-1.431-0.154c-3.74-0.786-6.136-4.447-5.35-8.192
		c1.764-8.399,2.66-16.968,2.66-25.472c0-17.6-3.628-34.568-10.788-50.473c-46.116-2.934-87.468-30.989-107.254-72.76
		c-3.533-0.166-7.124-0.166-10.665,0c-19.791,41.769-61.148,69.824-107.256,72.76c-7.16,15.898-10.788,32.858-10.788,50.473
		c0,8.504,0.896,17.073,2.66,25.472c0.786,3.745-1.608,7.409-5.348,8.192c-3.707,0.753-7.409-1.608-8.192-5.353
		c-1.964-9.329-2.959-18.854-2.959-28.314c0-21.102,4.685-41.367,13.921-60.239l1.836-3.743l4.17-0.12
		c43.909-1.306,83.561-28.201,101.02-68.531l1.664-3.84l4.17-0.302c7.908-0.591,12.948-0.591,20.856,0l4.173,0.302l1.661,3.85
		c17.457,40.32,57.111,67.215,101.023,68.521l4.17,0.12l1.838,3.743c9.234,18.88,13.921,39.153,13.921,60.239
		c0,9.457-0.998,18.985-2.957,28.314C389.574,470.465,386.696,472.705,383.496,472.705z"/>
	<path style="fill:#3F4A5A;" d="M245.492,398.033c-0.991,0-1.997-0.266-2.9-0.824c-7.657-4.728-12.227-12.887-12.227-21.821
		c0-14.136,11.5-25.633,25.636-25.633c14.134,0,25.636,11.494,25.636,25.633c0,8.942-4.572,17.103-12.227,21.821
		c-2.601,1.592-6.008,0.794-7.616-1.807c-1.61-2.601-0.801-6.016,1.807-7.616c4.36-2.691,6.963-7.329,6.963-12.401
		c0-8.033-6.531-14.561-14.561-14.561c-8.031,0-14.564,6.528-14.564,14.561c0,5.069,2.606,9.71,6.973,12.408
		c2.601,1.608,3.407,5.015,1.8,7.616C249.16,397.106,247.345,398.033,245.492,398.033z"/>
</g>
<g>
	<path style="fill:#333C49;" d="M325.656,256.032c0,38.474-31.181,69.655-69.655,69.655c-38.472,0-69.655-31.183-69.655-69.655
		c0-38.479,31.183-69.663,69.655-69.663C294.475,186.369,325.656,217.553,325.656,256.032z"/>
	<circle style="fill:#333C49;" cx="256.001" cy="334.005" r="36.173"/>
</g>
<path style="fill:#3F4A5A;" d="M256.001,301.587c-25.114,0-45.545-20.431-45.545-45.553c0-25.111,20.431-45.545,45.545-45.545
	c25.116,0,45.545,20.431,45.545,45.545C301.546,281.153,281.117,301.587,256.001,301.587z"/>
<g>
	<path style="fill:#FFFFFF;" d="M256.001,262.737c-3.692,0-6.7-3-6.7-6.705c0-3.686,3.008-6.705,6.7-6.705
		c3.694,0,6.699,3.016,6.699,6.705C262.7,259.736,259.695,262.737,256.001,262.737z"/>
	<path style="fill:#FFFFFF;" d="M256.001,301.587c-8.865,0-16.077-7.217-16.077-16.072c0-8.881,7.212-16.072,16.077-16.072
		c8.863,0,16.074,7.194,16.074,16.072C272.075,294.368,264.863,301.587,256.001,301.587z"/>
</g>
<g>
</g>
<g>
</g>
<g>
</g>
<g>
</g>
<g>
</g>
<g>
</g>
<g>
</g>
<g>
</g>
<g>
</g>
<g>
</g>
<g>
</g>
<g>
</g>
<g>
</g>
<g>
</g>
<g>
</g>
</svg>
