<?xml version="1.0" encoding="iso-8859-1"?>
<!-- Generator: Adobe Illustrator 19.0.0, SVG Export Plug-In . SVG Version: 6.00 Build 0)  -->
<svg version="1.1" id="Layer_1" xmlns="http://www.w3.org/2000/svg" xmlns:xlink="http://www.w3.org/1999/xlink" x="0px" y="0px"
	 viewBox="0 0 512 512" style="enable-background:new 0 0 512 512;" xml:space="preserve">
<path style="fill:#E6E5E5;" d="M256,54.83c-109.414,0-204.877,59.476-256,147.82c51.123,88.343,146.586,147.82,256,147.82
	c109.422,0,204.884-59.477,256-147.82C460.884,114.307,365.422,54.83,256,54.83z"/>
<path style="fill:#3F4A5A;" d="M256,81.393c-66.995,0-121.262,54.28-121.262,121.242c0,66.988,54.264,121.265,121.262,121.265
	c66.962,0,121.262-54.277,121.262-121.265C377.262,135.672,322.962,81.393,256,81.393z"/>
<circle style="fill:#9DE8F7;" cx="256" cy="202.65" r="96.937"/>
<circle style="fill:#6BC7D9;" cx="256" cy="202.65" r="51.927"/>
<g>
	<path style="fill:#FFFFFF;" d="M241.869,149.78c10.693,10.696,10.693,28.037,0,38.733c-10.696,10.693-28.042,10.693-38.738,0
		c-10.688-10.696-10.688-28.037,0-38.733C213.839,139.09,231.173,139.09,241.869,149.78z"/>
	<path style="fill:#FFFFFF;" d="M265.554,202.647c-0.01,5.276-4.275,9.554-9.554,9.554c-5.289,0-9.556-4.268-9.556-9.554
		c0-5.279,4.268-9.546,9.556-9.546C261.281,193.101,265.546,197.368,265.554,202.647z"/>
</g>
<path style="fill:#3F4A5A;" d="M285.522,312.591v115.092c0,16.276-13.199,29.486-29.522,29.486
	c-16.315,0-29.519-13.207-29.519-29.486V312.591L285.522,312.591L285.522,312.591z"/>
<g>
</g>
<g>
</g>
<g>
</g>
<g>
</g>
<g>
</g>
<g>
</g>
<g>
</g>
<g>
</g>
<g>
</g>
<g>
</g>
<g>
</g>
<g>
</g>
<g>
</g>
<g>
</g>
<g>
</g>
</svg>
